<?xml version="1.0" encoding="utf-8"?>
<!-- Generator: Adobe Illustrator 15.0.0, SVG Export Plug-In . SVG Version: 6.00 Build 0)  -->
<!DOCTYPE svg PUBLIC "-//W3C//DTD SVG 1.1//EN" "http://www.w3.org/Graphics/SVG/1.1/DTD/svg11.dtd">
<svg version="1.1" id="Layer_1" xmlns="http://www.w3.org/2000/svg" xmlns:xlink="http://www.w3.org/1999/xlink" x="0px" y="0px"
	 width="64px" height="64px" viewBox="0 0 64 64" enable-background="new 0 0 64 64" xml:space="preserve">
<g>
	<g>
		<path d="M52.82,46.221c-1.547-2.696-4.012-4.671-6.764-5.422c-1.872-0.512-3.773-0.416-5.428,0.258l-4.325-7.564
			c8.131-16.229,10.566-20.907,11.17-21.964c1.971-3.446-1.263-7.271-1.402-7.432l-0.94-1.091L32.001,25.968L18.872,3.004
			l-0.94,1.091c-0.14,0.16-3.376,3.986-1.405,7.433c1.231,2.149,8.035,15.702,11.173,21.964l-4.325,7.564
			c-1.657-0.674-3.562-0.77-5.428-0.258c-2.752,0.748-5.216,2.726-6.767,5.422c-2.906,5.08-1.733,11.237,2.616,13.725
			c1.881,1.08,4.142,1.333,6.389,0.723c4.979-1.573,7.437-5.391,7.437-5.391l0.694-3.651l0.064-0.34
			c0.014-0.081,0.026-0.168,0.029-0.2c0.856-5.75,2.311-9.199,3.594-11.231c1.283,2.029,2.735,5.47,3.587,11.18
			c0.006,0.081,0.018,0.159,0.044,0.33l0.041,0.349l0.037,0.038c0.256,1.207,0.706,2.38,1.342,3.501
			c0.093,0.156,0.186,0.313,0.284,0.467l0.334,0.502c1.547,2.195,3.738,3.792,6.148,4.447c0.795,0.218,1.602,0.328,2.392,0.328
			c1.439,0,2.783-0.354,3.997-1.051C54.554,57.458,55.727,51.301,52.82,46.221z M23.186,53.095c-0.967,1.684-2.514,2.952-4.14,3.396
			c-0.424,0.116-0.845,0.174-1.251,0.174c-0.673,0-1.294-0.162-1.849-0.479c-2.27-1.301-2.72-4.805-1.001-7.812
			c0.981-1.71,2.491-2.946,4.14-3.394c1.109-0.305,2.209-0.203,3.097,0.299C24.457,46.587,24.907,50.09,23.186,53.095z
			 M48.051,56.187c-0.551,0.316-1.172,0.479-1.846,0.479c-0.403,0-0.824-0.058-1.251-0.174c-1.623-0.441-3.173-1.713-4.137-3.396
			c-1.719-3.005-1.269-6.511,1.001-7.812c0.892-0.508,1.98-0.606,3.104-0.302c1.646,0.447,3.155,1.684,4.134,3.391
			C50.777,51.382,50.324,54.889,48.051,56.187z"/>
	</g>
</g>
</svg>
