<?xml version="1.0" encoding="utf-8"?>
<!-- Generator: Adobe Illustrator 17.0.0, SVG Export Plug-In . SVG Version: 6.00 Build 0)  -->
<!DOCTYPE svg PUBLIC "-//W3C//DTD SVG 1.1//EN" "http://www.w3.org/Graphics/SVG/1.1/DTD/svg11.dtd">
<svg version="1.1" id="Capa_1" xmlns="http://www.w3.org/2000/svg" xmlns:xlink="http://www.w3.org/1999/xlink" x="0px" y="0px"
	 width="64px" height="64px" viewBox="0 0 64 64" enable-background="new 0 0 64 64" xml:space="preserve">
<g>
	<polygon points="12,12 7.414,12 10.414,15 13.414,18 51.711,18 54.711,15 57.711,12 53,12 	"/>
	<polygon points="12,44.711 12,19.414 9,16.414 6,13.414 6,18 6,46 6,50.711 9,47.711 	"/>
	<polygon points="51.586,46 13.539,46 10.539,49 7.539,52 12,52 53,52 57.586,52 54.586,49 	"/>
	<polygon points="53,19.539 53,44.586 56,47.586 59,50.586 59,46 59,18 59,13.539 56,16.539 	"/>
</g>
</svg>
