<?xml version="1.0" encoding="utf-8"?>
<!-- Generator: Adobe Illustrator 16.0.4, SVG Export Plug-In . SVG Version: 6.00 Build 0)  -->
<!DOCTYPE svg PUBLIC "-//W3C//DTD SVG 1.1//EN" "http://www.w3.org/Graphics/SVG/1.1/DTD/svg11.dtd">
<svg version="1.1" id="Capa_1" xmlns="http://www.w3.org/2000/svg" xmlns:xlink="http://www.w3.org/1999/xlink" x="0px" y="0px"
	 width="64px" height="64px" viewBox="0 0 64 64" enable-background="new 0 0 64 64" xml:space="preserve" fill="white">
<path d="M56.605,50.421L34.092,9.169c-0.496-0.908-1.252-1.43-2.073-1.43c-0.825,0-1.581,0.524-2.075,1.439L7.691,50.419
	c-0.484,0.899-0.516,1.827-0.086,2.547S8.866,54.1,9.887,54.1h44.535c1.021,0,1.852-0.414,2.28-1.135
	C57.13,52.244,57.096,51.318,56.605,50.421z M54.982,51.943c-0.037,0.062-0.217,0.154-0.561,0.154H9.887
	c-0.345,0-0.526-0.095-0.564-0.158c-0.038-0.062-0.035-0.268,0.129-0.571l22.253-41.239c0.154-0.286,0.293-0.381,0.3-0.392
	c0.037,0.011,0.176,0.104,0.332,0.391L54.85,51.38C55.014,51.682,55.02,51.882,54.982,51.943z"/>
</svg>
